<mxfile>
    <diagram id="im0muWC9n7wGWK9ruEcm" name="Page-1">
        <mxGraphModel dx="771" dy="734" grid="1" gridSize="10" guides="1" tooltips="1" connect="1" arrows="1" fold="1" page="1" pageScale="1" pageWidth="827" pageHeight="1169" math="0" shadow="0">
            <root>
                <mxCell id="0"/>
                <mxCell id="1" parent="0"/>
                <mxCell id="ZJ2TVZIrwNjvePDaw6U7-8" value="" style="edgeStyle=orthogonalEdgeStyle;rounded=0;orthogonalLoop=1;jettySize=auto;html=1;" parent="1" source="ZJ2TVZIrwNjvePDaw6U7-6" target="ZJ2TVZIrwNjvePDaw6U7-7" edge="1">
                    <mxGeometry relative="1" as="geometry"/>
                </mxCell>
                <mxCell id="ZJ2TVZIrwNjvePDaw6U7-6" value="Start" style="strokeWidth=2;html=1;shape=mxgraph.flowchart.start_1;whiteSpace=wrap;" parent="1" vertex="1">
                    <mxGeometry x="109" y="50" width="100" height="60" as="geometry"/>
                </mxCell>
                <mxCell id="2" value="" style="edgeStyle=orthogonalEdgeStyle;rounded=0;orthogonalLoop=1;jettySize=auto;html=1;" edge="1" parent="1" source="ZJ2TVZIrwNjvePDaw6U7-7" target="ZJ2TVZIrwNjvePDaw6U7-9">
                    <mxGeometry relative="1" as="geometry"/>
                </mxCell>
                <mxCell id="ZJ2TVZIrwNjvePDaw6U7-7" value="Give user and computer 2 random cards" style="rounded=1;whiteSpace=wrap;html=1;absoluteArcSize=1;arcSize=14;strokeWidth=2;" parent="1" vertex="1">
                    <mxGeometry x="109" y="150" width="100" height="90" as="geometry"/>
                </mxCell>
                <mxCell id="ZJ2TVZIrwNjvePDaw6U7-20" value="yes" style="edgeStyle=orthogonalEdgeStyle;rounded=0;orthogonalLoop=1;jettySize=auto;html=1;" parent="1" source="ZJ2TVZIrwNjvePDaw6U7-9" target="ZJ2TVZIrwNjvePDaw6U7-14" edge="1">
                    <mxGeometry relative="1" as="geometry"/>
                </mxCell>
                <mxCell id="6" value="no" style="edgeStyle=orthogonalEdgeStyle;rounded=0;orthogonalLoop=1;jettySize=auto;html=1;" edge="1" parent="1" source="ZJ2TVZIrwNjvePDaw6U7-9" target="3">
                    <mxGeometry relative="1" as="geometry"/>
                </mxCell>
                <mxCell id="ZJ2TVZIrwNjvePDaw6U7-9" value="PC Blackjack?" style="strokeWidth=2;html=1;shape=mxgraph.flowchart.decision;whiteSpace=wrap;" parent="1" vertex="1">
                    <mxGeometry x="109" y="280" width="100" height="100" as="geometry"/>
                </mxCell>
                <mxCell id="ZJ2TVZIrwNjvePDaw6U7-13" value="Win" style="strokeWidth=2;html=1;shape=mxgraph.flowchart.terminator;whiteSpace=wrap;" parent="1" vertex="1">
                    <mxGeometry x="290" y="450" width="100" height="60" as="geometry"/>
                </mxCell>
                <mxCell id="ZJ2TVZIrwNjvePDaw6U7-14" value="Lose" style="strokeWidth=2;html=1;shape=mxgraph.flowchart.terminator;whiteSpace=wrap;" parent="1" vertex="1">
                    <mxGeometry x="278" y="300" width="100" height="60" as="geometry"/>
                </mxCell>
                <mxCell id="ZJ2TVZIrwNjvePDaw6U7-51" value="" style="edgeStyle=orthogonalEdgeStyle;rounded=0;orthogonalLoop=1;jettySize=auto;html=1;" parent="1" source="ZJ2TVZIrwNjvePDaw6U7-22" target="ZJ2TVZIrwNjvePDaw6U7-49" edge="1">
                    <mxGeometry relative="1" as="geometry"/>
                </mxCell>
                <mxCell id="ZJ2TVZIrwNjvePDaw6U7-22" value="Calculate user and PC scores&amp;nbsp;" style="rounded=1;whiteSpace=wrap;html=1;absoluteArcSize=1;arcSize=14;strokeWidth=2;" parent="1" vertex="1">
                    <mxGeometry x="109" y="865" width="100" height="80" as="geometry"/>
                </mxCell>
                <mxCell id="ZJ2TVZIrwNjvePDaw6U7-41" value="" style="edgeStyle=orthogonalEdgeStyle;rounded=0;orthogonalLoop=1;jettySize=auto;html=1;" parent="1" source="ZJ2TVZIrwNjvePDaw6U7-36" target="ZJ2TVZIrwNjvePDaw6U7-38" edge="1">
                    <mxGeometry relative="1" as="geometry"/>
                </mxCell>
                <mxCell id="ZJ2TVZIrwNjvePDaw6U7-36" value="show user cards and total. Show first card of PC" style="rounded=1;whiteSpace=wrap;html=1;absoluteArcSize=1;arcSize=14;strokeWidth=2;" parent="1" vertex="1">
                    <mxGeometry x="94" y="585" width="130" height="50" as="geometry"/>
                </mxCell>
                <mxCell id="ZJ2TVZIrwNjvePDaw6U7-40" value="yes" style="edgeStyle=orthogonalEdgeStyle;rounded=0;orthogonalLoop=1;jettySize=auto;html=1;" parent="1" source="ZJ2TVZIrwNjvePDaw6U7-38" target="ZJ2TVZIrwNjvePDaw6U7-39" edge="1">
                    <mxGeometry relative="1" as="geometry"/>
                </mxCell>
                <mxCell id="ZJ2TVZIrwNjvePDaw6U7-48" value="no" style="edgeStyle=orthogonalEdgeStyle;rounded=0;orthogonalLoop=1;jettySize=auto;html=1;" parent="1" source="ZJ2TVZIrwNjvePDaw6U7-38" target="ZJ2TVZIrwNjvePDaw6U7-22" edge="1">
                    <mxGeometry relative="1" as="geometry"/>
                </mxCell>
                <mxCell id="ZJ2TVZIrwNjvePDaw6U7-38" value="user want another card?" style="strokeWidth=2;html=1;shape=mxgraph.flowchart.decision;whiteSpace=wrap;" parent="1" vertex="1">
                    <mxGeometry x="94" y="677" width="130" height="100" as="geometry"/>
                </mxCell>
                <mxCell id="ZJ2TVZIrwNjvePDaw6U7-44" value="" style="edgeStyle=orthogonalEdgeStyle;rounded=0;orthogonalLoop=1;jettySize=auto;html=1;" parent="1" source="ZJ2TVZIrwNjvePDaw6U7-39" target="ZJ2TVZIrwNjvePDaw6U7-43" edge="1">
                    <mxGeometry relative="1" as="geometry"/>
                </mxCell>
                <mxCell id="ZJ2TVZIrwNjvePDaw6U7-39" value="give another random card to user" style="rounded=1;whiteSpace=wrap;html=1;absoluteArcSize=1;arcSize=14;strokeWidth=2;" parent="1" vertex="1">
                    <mxGeometry x="293" y="692" width="130" height="70" as="geometry"/>
                </mxCell>
                <mxCell id="ZJ2TVZIrwNjvePDaw6U7-45" value="no" style="edgeStyle=orthogonalEdgeStyle;rounded=0;orthogonalLoop=1;jettySize=auto;html=1;exitX=0.5;exitY=0;exitDx=0;exitDy=0;exitPerimeter=0;" parent="1" source="ZJ2TVZIrwNjvePDaw6U7-43" edge="1">
                    <mxGeometry relative="1" as="geometry">
                        <mxPoint x="159" y="655" as="targetPoint"/>
                        <Array as="points">
                            <mxPoint x="529" y="655"/>
                        </Array>
                    </mxGeometry>
                </mxCell>
                <mxCell id="ZJ2TVZIrwNjvePDaw6U7-47" value="yes" style="edgeStyle=orthogonalEdgeStyle;rounded=0;orthogonalLoop=1;jettySize=auto;html=1;" parent="1" source="ZJ2TVZIrwNjvePDaw6U7-43" target="ZJ2TVZIrwNjvePDaw6U7-46" edge="1">
                    <mxGeometry relative="1" as="geometry"/>
                </mxCell>
                <mxCell id="ZJ2TVZIrwNjvePDaw6U7-43" value="user &amp;gt; 21?" style="strokeWidth=2;html=1;shape=mxgraph.flowchart.decision;whiteSpace=wrap;" parent="1" vertex="1">
                    <mxGeometry x="479" y="677" width="100" height="100" as="geometry"/>
                </mxCell>
                <mxCell id="ZJ2TVZIrwNjvePDaw6U7-46" value="Lose" style="strokeWidth=2;html=1;shape=mxgraph.flowchart.terminator;whiteSpace=wrap;" parent="1" vertex="1">
                    <mxGeometry x="634" y="697" width="100" height="60" as="geometry"/>
                </mxCell>
                <mxCell id="ZJ2TVZIrwNjvePDaw6U7-53" value="yes" style="edgeStyle=orthogonalEdgeStyle;rounded=0;orthogonalLoop=1;jettySize=auto;html=1;" parent="1" source="ZJ2TVZIrwNjvePDaw6U7-49" target="ZJ2TVZIrwNjvePDaw6U7-52" edge="1">
                    <mxGeometry relative="1" as="geometry"/>
                </mxCell>
                <mxCell id="ZJ2TVZIrwNjvePDaw6U7-56" value="no" style="edgeStyle=orthogonalEdgeStyle;rounded=0;orthogonalLoop=1;jettySize=auto;html=1;" parent="1" source="ZJ2TVZIrwNjvePDaw6U7-49" target="ZJ2TVZIrwNjvePDaw6U7-55" edge="1">
                    <mxGeometry relative="1" as="geometry"/>
                </mxCell>
                <mxCell id="ZJ2TVZIrwNjvePDaw6U7-49" value="pc &amp;lt; 17?" style="strokeWidth=2;html=1;shape=mxgraph.flowchart.decision;whiteSpace=wrap;" parent="1" vertex="1">
                    <mxGeometry x="116" y="985" width="86" height="80" as="geometry"/>
                </mxCell>
                <mxCell id="ZJ2TVZIrwNjvePDaw6U7-54" style="edgeStyle=orthogonalEdgeStyle;rounded=0;orthogonalLoop=1;jettySize=auto;html=1;exitX=0.5;exitY=0;exitDx=0;exitDy=0;" parent="1" source="ZJ2TVZIrwNjvePDaw6U7-52" edge="1">
                    <mxGeometry relative="1" as="geometry">
                        <mxPoint x="164" y="845" as="targetPoint"/>
                        <Array as="points">
                            <mxPoint x="346" y="845"/>
                        </Array>
                    </mxGeometry>
                </mxCell>
                <mxCell id="ZJ2TVZIrwNjvePDaw6U7-52" value="give another random card to PC" style="rounded=1;whiteSpace=wrap;html=1;absoluteArcSize=1;arcSize=14;strokeWidth=2;" parent="1" vertex="1">
                    <mxGeometry x="278" y="990" width="136" height="70" as="geometry"/>
                </mxCell>
                <mxCell id="ZJ2TVZIrwNjvePDaw6U7-59" value="user" style="edgeStyle=orthogonalEdgeStyle;rounded=0;orthogonalLoop=1;jettySize=auto;html=1;" parent="1" source="ZJ2TVZIrwNjvePDaw6U7-55" target="ZJ2TVZIrwNjvePDaw6U7-58" edge="1">
                    <mxGeometry relative="1" as="geometry"/>
                </mxCell>
                <mxCell id="ZJ2TVZIrwNjvePDaw6U7-61" value="PC" style="edgeStyle=orthogonalEdgeStyle;rounded=0;orthogonalLoop=1;jettySize=auto;html=1;" parent="1" source="ZJ2TVZIrwNjvePDaw6U7-55" target="ZJ2TVZIrwNjvePDaw6U7-60" edge="1">
                    <mxGeometry relative="1" as="geometry"/>
                </mxCell>
                <mxCell id="ZJ2TVZIrwNjvePDaw6U7-55" value="who is&lt;br&gt;bigger?" style="strokeWidth=2;html=1;shape=mxgraph.flowchart.decision;whiteSpace=wrap;" parent="1" vertex="1">
                    <mxGeometry x="109" y="1125" width="100" height="100" as="geometry"/>
                </mxCell>
                <mxCell id="ZJ2TVZIrwNjvePDaw6U7-58" value="Win" style="strokeWidth=2;html=1;shape=mxgraph.flowchart.terminator;whiteSpace=wrap;" parent="1" vertex="1">
                    <mxGeometry x="278" y="1145" width="100" height="60" as="geometry"/>
                </mxCell>
                <mxCell id="ZJ2TVZIrwNjvePDaw6U7-60" value="Lose" style="strokeWidth=2;html=1;shape=mxgraph.flowchart.terminator;whiteSpace=wrap;" parent="1" vertex="1">
                    <mxGeometry x="109" y="1284" width="100" height="60" as="geometry"/>
                </mxCell>
                <mxCell id="ZJ2TVZIrwNjvePDaw6U7-66" value="no" style="edgeStyle=orthogonalEdgeStyle;rounded=0;orthogonalLoop=1;jettySize=auto;html=1;exitX=0.5;exitY=1;exitDx=0;exitDy=0;exitPerimeter=0;" parent="1" source="ZJ2TVZIrwNjvePDaw6U7-62" target="ZJ2TVZIrwNjvePDaw6U7-65" edge="1">
                    <mxGeometry relative="1" as="geometry"/>
                </mxCell>
                <mxCell id="ZJ2TVZIrwNjvePDaw6U7-71" value="yes" style="edgeStyle=orthogonalEdgeStyle;rounded=0;orthogonalLoop=1;jettySize=auto;html=1;entryX=0;entryY=0.5;entryDx=0;entryDy=0;entryPerimeter=0;exitX=0;exitY=0.5;exitDx=0;exitDy=0;exitPerimeter=0;" parent="1" source="ZJ2TVZIrwNjvePDaw6U7-62" edge="1" target="ZJ2TVZIrwNjvePDaw6U7-6">
                    <mxGeometry x="0.1201" relative="1" as="geometry">
                        <mxPoint x="30" y="130" as="targetPoint"/>
                        <mxPoint x="290" y="1600" as="sourcePoint"/>
                        <Array as="points">
                            <mxPoint x="30" y="1710"/>
                            <mxPoint x="30" y="80"/>
                        </Array>
                        <mxPoint as="offset"/>
                    </mxGeometry>
                </mxCell>
                <mxCell id="ZJ2TVZIrwNjvePDaw6U7-62" value="Want to play again?" style="strokeWidth=2;html=1;shape=mxgraph.flowchart.decision;whiteSpace=wrap;" parent="1" vertex="1">
                    <mxGeometry x="297" y="1660" width="100" height="100" as="geometry"/>
                </mxCell>
                <mxCell id="ZJ2TVZIrwNjvePDaw6U7-65" value="END" style="strokeWidth=2;html=1;shape=mxgraph.flowchart.terminator;whiteSpace=wrap;" parent="1" vertex="1">
                    <mxGeometry x="297" y="1820" width="100" height="60" as="geometry"/>
                </mxCell>
                <mxCell id="5" value="yes" style="edgeStyle=orthogonalEdgeStyle;rounded=0;orthogonalLoop=1;jettySize=auto;html=1;" edge="1" parent="1" source="3" target="ZJ2TVZIrwNjvePDaw6U7-13">
                    <mxGeometry relative="1" as="geometry"/>
                </mxCell>
                <mxCell id="7" value="no" style="edgeStyle=orthogonalEdgeStyle;rounded=0;orthogonalLoop=1;jettySize=auto;html=1;" edge="1" parent="1" source="3" target="ZJ2TVZIrwNjvePDaw6U7-36">
                    <mxGeometry relative="1" as="geometry"/>
                </mxCell>
                <mxCell id="3" value="user Blackjack?" style="strokeWidth=2;html=1;shape=mxgraph.flowchart.decision;whiteSpace=wrap;" vertex="1" parent="1">
                    <mxGeometry x="109" y="430" width="100" height="100" as="geometry"/>
                </mxCell>
                <mxCell id="11" value="" style="edgeStyle=orthogonalEdgeStyle;rounded=0;orthogonalLoop=1;jettySize=auto;html=1;entryX=1;entryY=0;entryDx=0;entryDy=0;entryPerimeter=0;" edge="1" parent="1" source="8" target="9">
                    <mxGeometry relative="1" as="geometry"/>
                </mxCell>
                <mxCell id="8" value="Win" style="strokeWidth=2;html=1;shape=mxgraph.flowchart.terminator;whiteSpace=wrap;" vertex="1" parent="1">
                    <mxGeometry x="209" y="1510" width="100" height="60" as="geometry"/>
                </mxCell>
                <mxCell id="10" value="" style="edgeStyle=orthogonalEdgeStyle;rounded=0;orthogonalLoop=1;jettySize=auto;html=1;" edge="1" parent="1" source="9" target="ZJ2TVZIrwNjvePDaw6U7-62">
                    <mxGeometry relative="1" as="geometry"/>
                </mxCell>
                <mxCell id="9" value="" style="strokeWidth=2;html=1;shape=mxgraph.flowchart.annotation_2;align=left;labelPosition=right;pointerEvents=1;direction=north;" vertex="1" parent="1">
                    <mxGeometry x="297" y="1590" width="100" height="50" as="geometry"/>
                </mxCell>
                <mxCell id="13" value="" style="edgeStyle=orthogonalEdgeStyle;rounded=0;orthogonalLoop=1;jettySize=auto;html=1;entryX=1;entryY=1;entryDx=0;entryDy=0;entryPerimeter=0;exitX=0.5;exitY=1;exitDx=0;exitDy=0;exitPerimeter=0;" edge="1" parent="1" source="12" target="9">
                    <mxGeometry relative="1" as="geometry">
                        <Array as="points">
                            <mxPoint x="447" y="1590"/>
                        </Array>
                    </mxGeometry>
                </mxCell>
                <mxCell id="12" value="Lose" style="strokeWidth=2;html=1;shape=mxgraph.flowchart.terminator;whiteSpace=wrap;" vertex="1" parent="1">
                    <mxGeometry x="397" y="1510" width="100" height="60" as="geometry"/>
                </mxCell>
            </root>
        </mxGraphModel>
    </diagram>
</mxfile>